<svg width="30" height="20" viewBox="0 0 30 20" fill="none" xmlns="http://www.w3.org/2000/svg">
<path d="M28.2556 8.37036H2.01861C1.16359 8.37036 0.470459 9.06349 0.470459 9.91851V10.0815C0.470459 10.9365 1.16359 11.6296 2.01861 11.6296H28.2556C29.1107 11.6296 29.8038 10.9365 29.8038 10.0815V9.91851C29.8038 9.06349 29.1107 8.37036 28.2556 8.37036Z" fill="white"/>
<path d="M28.2556 16.5186H2.01861C1.16359 16.5186 0.470459 17.2117 0.470459 18.0667V18.2297C0.470459 19.0847 1.16359 19.7778 2.01861 19.7778H28.2556C29.1107 19.7778 29.8038 19.0847 29.8038 18.2297V18.0667C29.8038 17.2117 29.1107 16.5186 28.2556 16.5186Z" fill="white"/>
<path d="M28.2556 0.222168H2.01861C1.16359 0.222168 0.470459 0.915297 0.470459 1.77032V1.93328C0.470459 2.7883 1.16359 3.48143 2.01861 3.48143H28.2556C29.1107 3.48143 29.8038 2.7883 29.8038 1.93328V1.77032C29.8038 0.915297 29.1107 0.222168 28.2556 0.222168Z" fill="white"/>
</svg>
